<?xml version="1.0" encoding="UTF-8"?>
<!DOCTYPE svg PUBLIC "-//W3C//DTD SVG 1.1//EN" "http://www.w3.org/Graphics/SVG/1.1/DTD/svg11.dtd">
<!-- Creator: CorelDRAW X7 -->
<svg xmlns="http://www.w3.org/2000/svg" xml:space="preserve" width="3.7449mm" height="3.7503mm" version="1.1" style="shape-rendering:geometricPrecision; text-rendering:geometricPrecision; image-rendering:optimizeQuality; fill-rule:evenodd; clip-rule:evenodd"
viewBox="0 0 16 16"
 xmlns:xlink="http://www.w3.org/1999/xlink">
 <defs>
  <style type="text/css">
   <![CDATA[
    .fil0 {fill:white}
   ]]>
  </style>
 </defs>
 <g id="Layer_x0020_1">
  <metadata id="CorelCorpID_0Corel-Layer"/>
  <g id="_2637780400272">
   <path class="fil0" d="M13 10c-1,0 -1,-1 -1,-1 -1,0 -1,1 -2,1l-1 1c0,0 0,0 0,0 0,0 0,0 0,0 -1,-1 -2,-2 -3,-3 -1,0 -1,-1 -1,-1 0,-1 1,-1 1,-1 0,0 0,0 0,0 1,-1 1,-2 0,-3l-1 -1c0,0 0,0 0,0 0,0 -1,0 -1,-1 0,0 -1,0 -1,0 0,0 -1,0 -1,0l0 0 -1 2c-1,0 -1,1 -1,1 0,1 0,2 0,3 1,1 2,3 3,4 2,2 3,3 5,4 1,1 2,1 3,1 0,0 0,0 1,0 0,0 1,0 1,-1 0,0 1,0 1,0 0,0 0,0 0,0 0,-1 0,-1 1,-1 0,0 0,-1 0,-1 0,0 0,-1 0,-1l-2 -2zm1 4c0,0 0,0 0,0 0,0 0,0 -1,0 0,0 0,0 0,1 -1,0 -1,0 -1,0 -1,0 -1,0 -1,0 -1,0 -2,0 -2,-1 -2,-1 -4,-2 -5,-4 -1,-1 -2,-2 -3,-4 0,0 0,-1 0,-2 0,0 0,0 0,-1l2 -1c0,0 0,0 0,0 0,0 0,0 1,0l0 0c0,0 0,0 0,1 0,0 0,0 1,0l0 1c1,0 1,1 0,1 0,0 0,0 0,0 0,1 0,1 -1,1 0,0 0,0 0,0 0,0 0,1 0,1l0 0c0,1 1,1 1,2l0 0c1,1 2,2 3,2 0,1 0,1 1,1 0,0 0,0 0,0 0,0 0,0 0,0 0,0 0,0 0,0 1,0 1,0 1,0l1 -1c0,-1 0,-1 1,-1 0,0 0,0 0,1l0 0 2 1c0,1 0,1 0,2z"/>
   <path class="fil0" d="M9 4c1,0 1,0 2,1 1,1 1,1 1,2 0,1 0,1 1,1 0,0 0,0 0,0 0,0 0,-1 0,-1 0,-1 -1,-2 -1,-3 -1,0 -2,-1 -3,-1 0,0 -1,0 -1,0 0,1 0,1 1,1z"/>
   <path class="fil0" d="M16 7c0,-2 -1,-3 -2,-5 -2,-1 -3,-2 -5,-2 0,0 -1,0 -1,0 0,1 1,1 1,1 1,0 3,1 4,2 1,1 2,3 2,4 0,0 0,1 1,1 0,0 0,0 0,0 0,0 0,-1 0,-1z"/>
  </g>
 </g>
</svg>
