<?xml version="1.0" encoding="UTF-8"?>
<!DOCTYPE svg PUBLIC "-//W3C//DTD SVG 1.1//EN" "http://www.w3.org/Graphics/SVG/1.1/DTD/svg11.dtd">
<!-- Creator: CorelDRAW X7 -->
<svg xmlns="http://www.w3.org/2000/svg" xml:space="preserve" width="3.7452mm" height="2.8501mm" version="1.1" style="shape-rendering:geometricPrecision; text-rendering:geometricPrecision; image-rendering:optimizeQuality; fill-rule:evenodd; clip-rule:evenodd"
viewBox="0 0 16 12"
 xmlns:xlink="http://www.w3.org/1999/xlink">
 <defs>
  <style type="text/css">
   <![CDATA[
    .fil0 {fill:white}
   ]]>
  </style>
 </defs>
 <g id="Layer_x0020_1">
  <metadata id="CorelCorpID_0Corel-Layer"/>
  <g id="_2637782448208">
   <path class="fil0" d="M14 0l-12 0c-1,0 -2,1 -2,2l0 8c0,1 1,2 2,2l12 0c1,0 2,-1 2,-2l0 -8c0,-1 -1,-2 -2,-2zm1 10c0,1 0,1 -1,1l-12 0c-1,0 -1,0 -1,-1l0 -8c0,-1 0,-1 1,-1l12 0c1,0 1,0 1,1l0 8 0 0z"/>
   <path class="fil0" d="M10 6l4 -4c0,0 0,0 0,0 0,0 0,0 -1,0l-5 5 -1 -1c0,0 0,0 0,0 0,0 0,0 0,0l-4 -4c-1,0 -1,0 -1,0 0,0 0,0 0,0l4 4 -4 4c0,0 0,0 0,0 0,0 0,0 0,0 0,0 1,0 1,0l4 -3 1 1c0,0 0,0 0,0 0,0 0,0 0,0l1 -1 4 3c1,0 1,1 1,1 0,0 0,-1 0,-1 0,0 0,0 0,0l-4 -4z"/>
  </g>
 </g>
</svg>
