<?xml version="1.0" encoding="UTF-8"?>
<!DOCTYPE svg PUBLIC "-//W3C//DTD SVG 1.1//EN" "http://www.w3.org/Graphics/SVG/1.1/DTD/svg11.dtd">
<!-- Creator: CorelDRAW X7 -->
<svg xmlns="http://www.w3.org/2000/svg" xml:space="preserve" width="10mm" height="10mm" version="1.1" style="shape-rendering:geometricPrecision; text-rendering:geometricPrecision; image-rendering:optimizeQuality; fill-rule:evenodd; clip-rule:evenodd"
viewBox="0 0 59 59"
 xmlns:xlink="http://www.w3.org/1999/xlink">
 <defs>
  <style type="text/css">
   <![CDATA[
    .fil0 {fill:#61D2B4}
    .fil1 {fill:white}
   ]]>
  </style>
 </defs>
 <g id="Layer_x0020_1">
  <metadata id="CorelCorpID_0Corel-Layer"/>
  <g id="_2637782447792">
   <circle class="fil0" cx="29" cy="29" r="29"/>
   <g>
    <path class="fil1" d="M35 26c0,0 0,0 0,0 -1,0 -1,0 -1,0 0,1 0,1 0,1 0,0 0,1 0,1 0,0 0,0 1,0 0,0 0,0 0,0 1,0 1,-1 1,-1 0,0 0,0 -1,-1z"/>
    <path class="fil1" d="M43 37c-1,-1 -1,-1 -2,-1l3 -4c1,0 1,-1 1,-2 0,0 0,-1 -1,-2l-3 -3c0,-1 1,-1 1,-1l0 0c2,-2 2,-5 0,-7 -2,-2 -5,-2 -7,0l0 0c0,0 -1,1 -1,1l-3 -3c-2,-2 -3,-2 -4,-1l-4 4c0,-1 0,-2 -1,-2l0 0c-2,-2 -5,-2 -7,-1 -1,2 -1,5 1,7l0 0c0,1 1,1 2,1l-4 4c-1,1 -1,2 1,4l4 4c0,0 1,0 1,0 1,0 2,-1 2,-1 0,-1 0,-1 0,-1l0 0c1,-1 1,-1 2,-1 1,0 1,0 2,1 0,0 1,1 1,2 0,0 0,1 -1,2l0 0c0,0 -1,0 -1,0 -1,0 -1,1 -1,1 0,1 0,2 0,2l4 4c1,1 2,1 2,1 1,0 2,0 2,-1l4 -3c0,1 0,1 1,2l0 0c2,2 5,2 6,0 2,-1 2,-4 0,-6l0 0zm-1 5c-1,1 -3,1 -4,0l0 0c0,-1 0,-1 0,-2 -1,0 -1,-1 -2,-1 -1,0 -1,0 -2,0l-3 4c0,0 -1,0 -1,0 0,0 0,0 0,0l-4 -4c1,0 1,-1 2,-1l0 0c0,-1 1,-2 1,-3 0,-1 -1,-3 -2,-3 -1,-1 -2,-2 -3,-2 -1,0 -2,0 -3,1l0 0c-1,1 -1,1 -1,2l-4 -4c0,0 0,0 0,-1 0,0 0,0 0,0l3 -4c1,0 1,-1 1,-1 0,-1 -1,-1 -1,-2 -1,0 -1,0 -2,0l0 -1c-1,-1 -1,-2 0,-3 1,-1 2,-1 3,0l1 0c0,1 0,1 0,2 1,0 1,1 2,1 0,0 1,0 1,-1l4 -3c0,0 1,0 1,0l4 4c1,0 1,1 2,0 0,0 1,0 1,-1 0,0 0,0 1,-1l0 0c1,-1 2,-1 3,1 1,1 1,2 1,3l-1 0c0,0 0,1 0,1 -1,0 -1,0 -2,1 0,1 0,1 1,2l4 4c0,0 0,0 0,0 0,0 0,1 0,1l-2 1 -3 -3c0,0 -1,0 -1,0 -1,0 -1,1 0,2l3 3 -1 0c0,1 0,1 0,2 0,1 1,1 1,2 1,0 1,0 2,0l0 0c1,1 1,3 0,4z"/>
   </g>
  </g>
 </g>
</svg>
