<?xml version="1.0" encoding="UTF-8"?>
<!DOCTYPE svg PUBLIC "-//W3C//DTD SVG 1.1//EN" "http://www.w3.org/Graphics/SVG/1.1/DTD/svg11.dtd">
<!-- Creator: CorelDRAW X7 -->
<svg xmlns="http://www.w3.org/2000/svg" xml:space="preserve" width="10mm" height="10mm" version="1.1" style="shape-rendering:geometricPrecision; text-rendering:geometricPrecision; image-rendering:optimizeQuality; fill-rule:evenodd; clip-rule:evenodd"
viewBox="0 0 59 59"
 xmlns:xlink="http://www.w3.org/1999/xlink">
 <defs>
  <style type="text/css">
   <![CDATA[
    .fil0 {fill:#61D2B4}
    .fil1 {fill:white}
   ]]>
  </style>
 </defs>
 <g id="Layer_x0020_1">
  <metadata id="CorelCorpID_0Corel-Layer"/>
  <g id="_2637776677248">
   <circle class="fil0" cx="29" cy="29" r="29"/>
   <g>
    <path class="fil1" d="M29 23c-3,0 -6,3 -6,6 0,2 0,3 1,4 0,0 0,0 0,0 1,2 3,3 5,3 4,0 7,-3 7,-7 0,-3 -3,-6 -7,-6zm-4 8c-1,0 -1,-1 -1,-2 0,-2 3,-5 5,-5 2,0 4,1 5,2l-4 4 -2 -1c0,0 -1,0 -1,0l-2 2zm4 4c-1,0 -3,-1 -4,-2l3 -3 1 2c0,0 1,0 1,0l4 -4c1,0 1,1 1,1 0,3 -3,6 -6,6z"/>
    <path class="fil1" d="M41 29c0,-4 -1,-7 -3,-10 -2,-4 -5,-7 -8,-9 0,0 -1,0 -1,0 -3,2 -6,5 -8,9 -2,3 -3,6 -3,10 -3,1 -4,4 -4,6l0 6c0,0 0,0 0,0l11 0c0,3 1,5 3,6l1 1c0,0 0,0 0,0 1,0 1,0 1,0l1 -1c1,-1 2,-3 3,-6l2 0 0 4c0,1 0,1 1,1 0,0 0,0 0,-1l0 -4 7 0c1,0 1,0 1,0l0 -6c0,-2 -2,-5 -4,-6zm-12 -17c3,1 5,3 6,5l-12 0c2,-2 4,-4 6,-5zm-14 28l0 -5c0,-2 1,-3 3,-4l0 8c0,0 0,1 0,1l-3 0zm15 6l-1 1 0 -1c-1,-1 -2,-3 -2,-5l5 0c0,2 -1,4 -2,5zm9 -7c0,1 0,1 0,1l-19 0c0,0 -1,0 -1,-1l0 -9c0,-3 1,-6 2,-8l3 0c1,0 1,0 1,-1 0,0 0,-1 -1,-1l-2 0c0,0 0,-1 0,-1l14 0c2,3 3,7 3,11l0 9zm5 1l-3 0c0,0 0,-1 0,-1l0 -8c2,1 3,2 3,4l0 5z"/>
    <path class="fil1" d="M28 21c-1,-1 -1,-1 -1,-1 0,0 0,0 0,1 -1,0 -1,0 -1,0 0,0 0,1 1,1 0,0 0,0 0,0 0,0 0,0 1,0 0,0 0,-1 0,-1 0,0 0,0 0,0z"/>
    <path class="fil1" d="M22 43c0,0 0,1 0,1l0 2c0,1 0,1 0,1 1,0 1,0 1,-1l0 -2c0,0 0,-1 -1,-1z"/>
    <path class="fil1" d="M37 47c0,0 0,0 0,0 -1,0 -1,0 -1,0 0,0 0,1 0,1 0,0 0,0 0,0 0,0 0,0 1,0 0,0 0,0 0,0 0,0 0,0 0,0 0,0 0,-1 0,-1z"/>
   </g>
  </g>
 </g>
</svg>
