<?xml version="1.0" encoding="UTF-8"?>
<!DOCTYPE svg PUBLIC "-//W3C//DTD SVG 1.1//EN" "http://www.w3.org/Graphics/SVG/1.1/DTD/svg11.dtd">
<!-- Creator: CorelDRAW X7 -->
<svg xmlns="http://www.w3.org/2000/svg" xml:space="preserve" width="10mm" height="10mm" version="1.1" style="shape-rendering:geometricPrecision; text-rendering:geometricPrecision; image-rendering:optimizeQuality; fill-rule:evenodd; clip-rule:evenodd"
viewBox="0 0 59 59"
 xmlns:xlink="http://www.w3.org/1999/xlink">
 <defs>
  <style type="text/css">
   <![CDATA[
    .fil0 {fill:#61D2B4}
    .fil1 {fill:white}
   ]]>
  </style>
 </defs>
 <g id="Layer_x0020_1">
  <metadata id="CorelCorpID_0Corel-Layer"/>
  <g id="_2637716047616">
   <circle class="fil0" cx="29" cy="29" r="29"/>
   <g>
    <path class="fil1" d="M47 26c0,0 0,0 0,-1l0 -4c0,-1 0,-1 0,-1l-4 0c-1,0 -1,0 -2,1l-9 0c0,0 0,0 0,0 -2,-1 -4,-1 -6,-1l-6 1 -3 0c0,0 0,-1 -1,-1l-4 0c0,0 0,0 0,1l0 4c0,1 0,1 0,1 1,0 1,0 1,-1l0 -4 3 0 0 14 -3 0 0 -4c0,-1 0,-1 -1,-1 0,0 0,0 0,1l0 4c0,1 0,1 0,1l4 0c1,0 1,-1 1,-1l0 0c1,0 1,0 1,0l1 0c0,1 0,1 0,2 1,0 1,0 2,0 0,0 0,0 0,0 0,1 0,1 1,2 0,0 1,0 1,0 0,0 0,0 0,0 0,1 1,1 1,2 1,0 1,0 2,0 0,0 0,0 0,0 0,1 0,1 0,2 1,0 1,0 2,0 0,0 0,0 0,0 1,0 1,0 2,-1l0 0c0,-1 0,-1 1,-1 0,0 0,0 1,0 0,0 0,0 0,0 0,0 1,0 1,-1 1,0 1,0 1,0l0 0c0,0 1,1 2,1 0,0 1,-1 1,-1 1,0 1,-1 1,-1 0,0 1,0 1,0 0,0 1,0 2,0 0,-1 0,-2 0,-2 0,-1 0,-1 -1,-2l0 0 1 -1 0 1c0,0 1,1 2,1l4 0c0,0 0,0 0,-1l0 -4c0,-1 0,-1 0,-1 -1,0 -1,0 -1,1l0 4 -3 0 0 -14 3 0 0 4c0,1 0,1 1,1zm-25 9l-1 1c0,0 0,0 -1,0 0,-1 0,-1 0,-1l1 -1c0,0 0,0 0,0 0,0 0,0 0,0 1,0 1,0 1,0 0,0 0,1 0,1zm2 2l0 0c0,1 -1,1 -1,1 -1,-1 -1,-1 -1,-1 0,0 0,0 1,-1l0 0c0,0 0,-1 1,-1 0,0 0,0 0,0 0,0 0,1 0,1 0,0 1,0 1,0 0,0 0,1 -1,1zm3 2l-1 0c0,1 0,1 0,1 -1,0 -1,0 -1,0 0,-1 0,-1 0,-1 0,0 0,0 0,-1l0 0c1,-1 1,-1 1,-1 0,0 0,0 1,1 0,0 0,0 0,1zm2 2l0 0c-1,1 -1,1 -1,1 0,0 0,0 -1,-1 0,0 0,0 0,-1l1 0c0,-1 0,-1 0,-1 0,0 0,0 0,0 1,0 1,0 1,1 0,0 0,0 0,0 0,0 0,1 0,1zm11 -3c-1,0 -1,0 -2,0l-2 -3c0,0 0,0 0,0l-2 -2c-1,0 -1,0 -1,0 -1,0 -1,1 0,1l3 4c1,0 1,1 0,1 0,0 -1,0 -1,0l-4 -4c0,0 0,0 0,0l-1 -1c-1,-1 -1,-1 -1,0 -1,0 -1,0 0,1l3 3c1,1 1,1 0,2 0,0 0,0 0,0 -1,0 -1,0 -1,0l-1 -1c0,0 0,-1 0,-1 0,0 0,0 0,0 -1,0 -1,0 -2,0 0,-1 0,-1 0,-1 -1,-1 -2,-1 -2,-1 0,-1 0,-1 -1,-1 0,-1 -1,-1 -1,-1 0,0 -1,-1 -1,-1 -1,-1 -1,-1 -2,-1 0,0 -1,0 -1,1l-1 1c0,0 0,0 0,0 0,-1 -1,-1 -2,-1l0 -10 3 0c0,0 0,0 0,0l6 -1c1,-1 2,-1 3,0 -1,0 -2,0 -2,1l-5 5c-1,1 -1,3 -1,4 1,0 2,0 2,0 1,0 1,0 1,0l6 -3 2 0 8 7c0,0 0,1 0,1 0,0 0,0 0,1zm1 -6l-2 2 -5 -5 0 0c1,0 1,0 1,-1 0,0 0,-1 -1,-1l-4 0c0,0 0,1 0,1l-6 3c-1,0 -1,0 -1,0 -1,-1 -1,-1 0,-2l5 -5c1,-1 2,-2 4,-2l9 0 0 10z"/>
    <path class="fil1" d="M47 27c0,0 0,0 0,0 -1,0 -1,0 -1,0 0,1 0,1 0,1 0,0 0,0 0,0 0,1 0,1 1,1 0,0 0,0 0,-1 0,0 0,0 0,0 0,0 0,0 0,-1z"/>
    <path class="fil1" d="M13 27c0,0 -1,0 -1,0 0,0 0,0 0,0 0,1 0,1 0,1 0,0 0,0 0,0 0,1 0,1 0,1 0,0 1,0 1,-1 0,0 0,0 0,0 0,0 0,0 0,-1z"/>
   </g>
  </g>
 </g>
</svg>
