<?xml version="1.0" encoding="UTF-8"?>
<!DOCTYPE svg PUBLIC "-//W3C//DTD SVG 1.1//EN" "http://www.w3.org/Graphics/SVG/1.1/DTD/svg11.dtd">
<!-- Creator: CorelDRAW X7 -->
<svg xmlns="http://www.w3.org/2000/svg" xml:space="preserve" width="10mm" height="10mm" version="1.1" style="shape-rendering:geometricPrecision; text-rendering:geometricPrecision; image-rendering:optimizeQuality; fill-rule:evenodd; clip-rule:evenodd"
viewBox="0 0 33 33"
 xmlns:xlink="http://www.w3.org/1999/xlink">
 <defs>
  <style type="text/css">
   <![CDATA[
    .fil0 {fill:#61D2B4}
    .fil1 {fill:white}
   ]]>
  </style>
 </defs>
 <g id="Layer_x0020_1">
  <metadata id="CorelCorpID_0Corel-Layer"/>
  <g id="_2637772407824">
   <circle class="fil0" cx="16" cy="16" r="16"/>
   <g>
    <path class="fil1" d="M25 17l-2 -4c0,-1 -1,-1 -1,-1l-11 0c-1,0 -1,0 -1,1l-3 4c0,0 0,0 0,1l9 9c0,0 0,0 0,0 1,0 1,0 1,0l8 -9c1,-1 1,-1 0,-1zm-4 -4l-2 3 -2 -3 4 0zm-2 4l-5 0 2 -4 3 4zm-3 -4l-3 3 -2 -3 5 0zm-6 0l3 4 -5 0 2 -4zm-2 5l5 0 3 8 -8 -8zm8 7l-2 -7 5 0 -3 7zm1 1l3 -8 4 0 -7 8zm3 -9l2 -4 2 4 -4 0z"/>
    <path class="fil1" d="M6 17l-1 0c0,0 0,0 0,0 0,0 0,1 0,1l1 0c0,0 1,-1 1,-1 0,0 -1,0 -1,0z"/>
    <path class="fil1" d="M28 17l-1 0c-1,0 -1,0 -1,0 0,0 0,1 1,1l1 0c0,0 0,-1 0,-1 0,0 0,0 0,0z"/>
    <path class="fil1" d="M25 9c-1,0 -1,0 -1,0l-2 1c0,1 0,1 0,1 1,0 1,0 1,0 0,0 0,0 0,0l2 -1c0,-1 0,-1 0,-1z"/>
    <path class="fil1" d="M10 10l-1 -1c0,0 -1,0 -1,0 0,0 0,0 0,1l2 1c0,0 0,0 0,0 0,0 0,0 0,0 0,0 0,0 0,-1z"/>
    <path class="fil1" d="M16 5c0,0 0,1 0,1l0 3c0,0 0,0 0,0 1,0 1,0 1,0l0 -3c0,0 0,-1 -1,-1z"/>
    <path class="fil1" d="M17 10c0,0 0,0 -1,0 0,0 0,0 0,0 0,0 0,0 0,0 0,1 0,1 0,1 0,0 0,0 0,0 1,0 1,0 1,0 0,0 0,0 0,-1 0,0 0,0 0,0z"/>
   </g>
  </g>
 </g>
</svg>
